<?xml version="1.0" standalone="no"?>
<!DOCTYPE svg PUBLIC "-//W3C//DTD SVG 1.1//EN" "http://www.w3.org/Graphics/SVG/1.1/DTD/svg11.dtd">
<svg xmlns="http://www.w3.org/2000/svg" width="402" height="181" viewBox="0 0 402 181" fill="none">
<g clip-path="url(#clip0_2455_40944)">
<mask id="mask0_2455_40944" style="mask-type:luminance" maskUnits="userSpaceOnUse" x="1" y="55" width="400" height="71">
<path d="M401 55H1V125.627H401V55Z" fill="white"/>
</mask>
<g mask="url(#mask0_2455_40944)">
<path d="M55.8088 71.5989C55.8088 81.2327 49.8853 91.7128 29.7714 91.7128H20.5281L17.2734 110.46H1L10.764 55H33.5468C44.9382 55 55.8088 58.5801 55.8088 71.5989ZM38.3637 72.3149C38.3637 66.9121 34.0024 66.3263 30.8129 66.3263H25.1497L22.546 81.0374H28.2742C35.6949 81.0374 38.3637 76.6111 38.3637 72.3149Z" fill="black"/>
<path d="M87.3788 70.4923C88.3873 70.457 89.3957 70.5666 90.3731 70.8178L87.8344 85.8544C86.1789 85.4102 84.4711 85.1913 82.7571 85.2035C80.4742 84.9888 78.1846 85.5383 76.2478 86.7657C74.0787 88.941 72.7819 91.8357 72.6025 94.9024L69.8686 110.46H54.4414L61.4715 70.4923H76.3128L73.9695 83.511C75.2063 78.1083 79.1119 70.4923 87.3788 70.4923Z" fill="black"/>
<path d="M90.3739 92.7543C90.2154 89.733 90.7048 86.7127 91.8093 83.896C92.9138 81.0793 94.6079 78.5314 96.7778 76.4231C98.9478 74.3148 101.543 72.6949 104.391 71.672C107.238 70.6491 110.271 70.2469 113.287 70.4923C121.293 70.4923 132.815 73.4215 132.815 88.1327C132.963 91.1598 132.464 94.1838 131.353 97.0034C130.241 99.823 128.542 102.374 126.368 104.486C124.195 106.598 121.596 108.223 118.746 109.253C115.896 110.283 112.859 110.694 109.837 110.46C102.026 110.46 90.3739 107.465 90.3739 92.7543ZM117.778 87.5468C117.778 81.7535 115.044 80.5818 113.026 80.5818C107.559 80.5818 105.541 88.5883 105.541 93.6005C105.541 98.6127 108.275 100.565 110.358 100.565C115.76 100.565 117.778 92.4288 117.778 87.5468Z" fill="black"/>
<path d="M142.513 70.4924H157.68L156.508 77.0018C157.671 74.8245 159.456 73.0427 161.636 71.8834C163.815 70.7242 166.29 70.24 168.746 70.4924C173.758 70.4924 182.09 73.682 182.09 86.8309C182.09 96.2694 177.208 110.395 162.562 110.395C159.958 110.395 153.839 109.093 152.277 105.838L148.762 125.366H132.749L142.513 70.4924ZM165.882 87.5469C165.882 81.6885 163.213 80.5168 161.195 80.5168C157.745 80.5168 155.467 83.7715 154.686 87.612L153.904 91.3874C153.058 95.4883 153.904 100.956 158.396 100.956C163.734 101.152 165.882 92.7544 165.882 87.5469Z" fill="black"/>
<path d="M194.979 55H210.732L206.826 77.4573C208.13 75.3009 209.961 73.512 212.148 72.2593C214.335 71.0066 216.804 70.3313 219.324 70.297C220.89 70.1911 222.46 70.4386 223.918 71.021C225.376 71.6035 226.685 72.5061 227.747 73.6621C228.81 74.8182 229.598 76.1981 230.056 77.7C230.513 79.2019 230.627 80.7874 230.39 82.3393C230.365 84.524 230.147 86.7023 229.739 88.8487L225.833 110.785H210.081L214.051 87.5468C214.115 87.0498 214.115 86.5466 214.051 86.0496C214.051 82.6648 212.294 81.6884 210.276 81.6884C206.435 81.6884 205.199 84.943 204.483 88.7836L200.772 110.199H185.215L194.979 55Z" fill="black"/>
<path d="M275.044 93.6656H249.462C249.46 94.5543 249.641 95.4339 249.992 96.2503C250.343 97.0666 250.858 97.8024 251.504 98.4122C252.151 99.0221 252.915 99.4931 253.751 99.7962C254.586 100.099 255.475 100.228 256.362 100.175C257.826 100.187 259.264 99.7834 260.508 99.0115C261.752 98.2395 262.752 97.1308 263.392 95.8137L273.546 100.566C271.711 103.834 268.973 106.505 265.66 108.259C262.347 110.014 258.6 110.778 254.865 110.46C246.272 110.46 234.686 107.075 234.686 92.7543C234.5 89.7545 234.96 86.7498 236.034 83.9428C237.108 81.1357 238.771 78.5915 240.912 76.4818C243.053 74.3721 245.621 72.7458 248.443 71.7126C251.265 70.6794 254.276 70.2632 257.273 70.4923C266.581 70.4923 276.15 74.2026 276.15 86.31C276.142 88.8027 275.769 91.2808 275.044 93.6656ZM262.025 84.0969C262.05 83.3778 261.918 82.6618 261.638 81.9989C261.358 81.3361 260.937 80.7422 260.404 80.2588C259.871 79.7754 259.239 79.4141 258.552 79.2001C257.865 78.986 257.14 78.9244 256.427 79.0196C252.196 79.0196 249.917 82.0139 249.267 86.2449H262.025C262.238 85.5488 262.348 84.825 262.35 84.0969H262.025Z" fill="black"/>
<path d="M282.204 70.4923H288.714L290.081 62.4858H305.833L304.466 70.4923H313.449L311.692 80.3215H302.709L300.431 93.0147C299.65 97.5713 302.383 98.6779 305.117 98.6779C306.222 98.774 307.333 98.774 308.437 98.6779L306.94 109.158C303.947 110.177 300.789 110.618 297.632 110.46C289.886 110.46 282.4 108.572 284.613 93.4053L286.891 80.3866H280.382L282.204 70.4923Z" fill="black"/>
<path d="M384.596 110.46H364.287L353.352 93.9261L366.891 83.7715L384.596 110.46Z" fill="url(#paint0_linear_2455_40944)"/>
<path fill-rule="evenodd" clip-rule="evenodd" d="M386.81 73.4866L401 55H374.507L376.59 58.0594L360.122 70.4272L358.69 71.4687L345.15 81.6233L343.718 82.7299L327.249 95.0326L325.231 91.9732L311.041 110.46H337.469L335.451 107.335L351.92 95.0326L353.352 93.926L366.891 83.7714L368.323 82.7299L384.792 70.4272L386.81 73.4866Z" fill="url(#paint1_linear_2455_40944)"/>
<path d="M327.444 55H347.688L358.689 71.4687L345.15 81.6233L327.444 55Z" fill="url(#paint2_linear_2455_40944)"/>
</g>
</g>
<defs>
<linearGradient id="paint0_linear_2455_40944" x1="391.627" y1="105.187" x2="341.439" y2="89.6299" gradientUnits="userSpaceOnUse">
<stop stop-color="#60C1A0"/>
<stop offset="1" stop-color="#31A7AF"/>
</linearGradient>
<linearGradient id="paint1_linear_2455_40944" x1="353.873" y1="90.9317" x2="279.861" y2="90.9317" gradientUnits="userSpaceOnUse">
<stop stop-color="#60C1A0"/>
<stop offset="1" stop-color="#31A7AF"/>
</linearGradient>
<linearGradient id="paint2_linear_2455_40944" x1="320.414" y1="60.2726" x2="370.601" y2="75.7648" gradientUnits="userSpaceOnUse">
<stop stop-color="#60C1A0"/>
<stop offset="1" stop-color="#31A7AF"/>
</linearGradient>
<clipPath id="clip0_2455_40944">
<rect width="400" height="71" fill="white" transform="translate(1 55)"/>
</clipPath>
</defs>
</svg>